<?xml version="1.0" standalone="yes"?>
<svg xmlns="http://www.w3.org/2000/svg" width="256" height="272">
<path style="fill:#FEFEFE; stroke:none;" d="M124 3.46451C105.33 6.80063 94.3007 24.1783 101.761 42C104.781 49.2155 113.066 53.4985 112.481 62C111.847 71.2334 108.597 81.6801 104.638 90C102.411 94.6799 97.3646 100.68 97.3619 105.999C97.3595 110.662 102.208 113.641 106 115.271C115.268 119.254 130.15 119.315 140 117.674C145.737 116.719 158.158 114.333 160.164 107.957C161.504 103.695 157.671 98.6916 155.978 95C151.778 85.8368 147.396 76.1285 146.184 66C144.722 53.7822 155.54 48.125 158.39 37C163.413 17.3994 142.587 0.143341 124 3.46451M162 82C163.782 92.3115 175.92 100.875 171.652 112C168.34 120.633 159.196 124.607 151 127.115C136.244 131.63 117.319 131.994 103 125.85C96.8176 123.196 90.5971 119.998 87.0093 113.999C80.2082 102.628 93.5924 92.5224 96 82C69.1989 87.5318 32.1958 93.3755 14.7639 117C1.02563 135.619 6.62084 164.479 19.6296 182C42.3748 212.634 77.3772 229.189 115 232.83C158.984 237.087 207.936 219.809 236.196 185C249.918 168.097 260.558 142.779 247.881 122C230.023 92.7284 191.579 90.3937 162 82z"/>
<path style="fill:#FEFEFE; stroke:none;" d="M97 240C101.004 248.586 110.578 256.918 118 262.711C121.139 265.161 124.827 267.821 129 267.71C133.497 267.59 137.556 264.704 141 262.1C148.534 256.405 155.394 249.263 160 241C152.5 241.327 145.482 244.386 138 244.91C124.047 245.888 110.515 242.775 97 240z"/>
</svg>
