<?xml version="1.0" standalone="yes"?>
<svg xmlns="http://www.w3.org/2000/svg" width="289" height="263">
<path style="fill:#FEFEFE; stroke:none;" d="M82 15C70.7019 19.705 61.3844 26.7179 58.0185 39C57.1364 42.219 55.4513 49.4757 58.6034 51.9722C63.2583 55.659 71.297 51.585 74.8256 48.3804C83.7765 40.2517 85.2645 26.0403 82 15M210 16C210 21.5752 209.437 27.4998 210.468 33C211.876 40.5152 215.697 48.51 223.001 51.7716C226.25 53.2227 231.615 53.7898 233.972 50.4275C235.526 48.2117 235.058 44.5523 234.985 42C234.613 29.1494 222.266 17.8385 210 16M43 22C40.7223 27.9317 36.4542 32.8761 34.4676 39C33.1992 42.9102 32.9193 46.9151 33.0147 51C33.147 56.6718 39.15 75.0365 47.3866 66.6813C55.4731 58.4784 54.6044 42.8917 51.5864 33C49.9741 27.7155 49.037 22.9601 43 22M246.174 24.1759C243.396 25.3694 242.037 29.4552 240.935 32C237.093 40.8782 237.465 49.9957 240.507 59C242.077 63.6464 244.608 70.8045 250.914 68.1373C262.913 63.0618 260.697 44.2303 256.37 35C254.921 31.9094 250.862 22.1617 246.174 24.1759M267 51C263.019 55.9964 259.029 60.1718 256.12 66C254.021 70.2054 253.061 74.3151 253.004 79C252.967 81.9815 252.858 85.0233 253.044 88C253.583 96.6083 260.807 98.7431 266.7 92.811C275.124 84.3314 277.67 73.2516 274.362 62C272.919 57.0932 272.36 52.6124 267 51M38 96C42.7165 83.9357 40.664 72.9765 33.7708 62C32.0494 59.2588 27.6891 51.1798 23.429 53.1759C19.6913 54.9273 18.357 64.381 18.0903 68C17.0738 81.7942 22.403 95.9467 38 96M211 57C212.858 65.6675 218.604 73.747 227 77L227 79C212.591 82.1805 228.592 96.7812 234 102L226 102C226.098 110.906 230.542 119.817 237.015 125.906C240.478 129.163 244.922 132.041 249.895 130.566C254.125 129.311 255.04 124.872 254.546 121C253.496 112.784 249.489 108.669 243 104C245.368 103.256 247.821 102.604 249.564 100.697C256.729 92.8573 244.199 82.1434 237 81L237 78C247.379 75.8939 242.597 66.3724 236.957 61.1883C229.255 54.1092 220.213 53.2465 211 57M57 80C52.3615 81.8846 48.1014 83.7781 45.189 88.0903C40.4356 95.1283 41.7652 103.574 51 105C46.4022 108.515 42.7952 112.157 41.5185 118C39.449 127.472 43.6529 132.96 53 129C48.5297 135.486 43.3311 142.586 44.365 151C45.3877 159.322 51.4865 165.756 58.8117 158.695C65.1352 152.6 67.9382 142.552 67.9954 134C68.0128 131.398 68.4744 126.946 65.5664 125.622C62.5378 124.243 58.6836 126.81 56 128C61.1553 122.801 64.9479 117.748 67.8542 111C68.7804 108.849 70.63 104.969 68.3573 103.028C66.2112 101.195 61.6146 102 59 102C65.9474 96.6618 71.7331 89.0235 72 80L61 80L61 78C71.249 76.9446 80.0888 66.883 82 57C74.3412 53.7547 63.6788 53.7529 57.0401 59.3434C49.9154 65.3432 46.657 75.945 57 80M11 84C9.89982 97.9407 8.07039 110.796 19.2894 121.384C22.6802 124.585 28.924 130.128 33.7215 126.393C37.9796 123.078 37.0172 116.569 36.0401 112C33.6873 100.999 22.3633 86.2852 11 84M282 84C269.161 87.0863 262.41 99.3202 258.685 111C257.212 115.621 255.824 124.058 261.147 126.954C265.796 129.482 272.664 123.932 275.699 120.815C285.376 110.875 285.537 96.5874 282 84z"/>
<path style="fill:#FEFEFE; stroke:none;" d="M5 121C5.11089 134.219 11.3206 147.161 23 153.895C27.1693 156.299 35.594 159.209 39.3966 154.682C42.9044 150.506 39.3333 143.881 37.0486 140C30.7554 129.31 17.4427 121.137 5 121M285 121C273.77 122.469 260.233 131.915 255.185 142C253.408 145.55 250.418 151.949 253.604 155.485C257.502 159.811 266.824 156.819 271 154.39C276.452 151.219 282.623 146.311 284.487 140C286.175 134.286 285 126.925 285 121M227.603 126.032C225.655 127.523 225.986 130.837 225.715 133C224.665 141.392 226.132 150.005 231.509 156.945C234.226 160.451 239.651 163.469 243.775 160.393C253.187 153.372 246.4 136.46 239.896 130.13C237.36 127.662 231.265 123.231 227.603 126.032z"/>
<path style="fill:#FEFEFE; stroke:none;" d="M63 180C59.1233 176.537 57.213 172.594 52 171C52.6148 176.628 55.5992 182.882 60.0833 186.528C62.9105 188.826 67.9449 191.924 69 187C75.0883 188.395 79.2892 183.847 80.6065 178C82.4635 169.757 81.3201 154.334 74.4676 148.377C70.4271 144.864 66.0589 150.947 63.9931 154C58.9441 161.462 59.155 172.145 63 180M242 169C235.716 170.053 233.505 176.18 229 180C231.557 173.965 232.524 164.219 229.914 158C228.467 154.552 223.969 146.527 219.262 147.752C215.277 148.789 212.775 156.532 211.903 160C209.648 168.964 210.886 185.58 222.015 188.446C232.262 191.085 239.963 176.937 242 169M7 156C8.45592 170.229 20.4398 181.262 33 186.486C38.0631 188.592 46.0202 190.485 50.6427 186.272C53.8257 183.372 51.591 178.187 50.0224 175C45.706 166.231 35.759 161.831 27 158.787C20.7132 156.602 13.6157 156.522 7 156M285 158C271.057 158 255.31 158.452 245.468 170.04C242.621 173.393 237.25 181.312 240.622 185.697C243.824 189.86 250.58 188.488 255 187.829C268.835 185.768 282.849 171.79 285 158M224 193L223 192C215.473 193.988 211.146 200.671 205 205C210.535 196.238 212.168 185.587 207.176 176C205.856 173.466 203.749 169.571 200.751 168.748C194.222 166.954 189.845 181.707 188.76 186C187.934 189.27 187.932 192.646 188.015 196C188.072 198.343 188.202 200.765 189.032 202.985C196.073 221.822 220.614 205.897 224 193M89 206C82.5639 201.484 75.4553 191.268 67 192C69.7934 203.749 89.1395 218.297 100.525 208.276C107.774 201.897 104.5 186.221 100.518 179C99.7471 177.602 98.8785 176.209 97.7762 175.044C88.9084 165.67 84.8797 176.557 82.8997 185C81.058 192.853 84.3606 199.849 89 206M183 176C170.995 181.612 157.212 190.44 153.49 204C151.959 209.576 151.137 218.973 158.094 221.397C163.569 223.304 170.217 218.721 173.674 214.907C180.39 207.497 181.162 199.363 182.285 190C182.854 185.262 184.182 180.679 183 176M109 177C109 190.559 109.347 208.689 122.004 217.034C125.782 219.525 132.435 223.382 136.772 220.243C141.48 216.836 140.232 208.805 138.906 204C135.427 191.395 121.571 179.883 109 177M21 195C23.3034 209.928 43.003 216.669 56 215.154C60.8177 214.593 68.3462 213.537 70.9282 208.671C75.0578 200.889 59.099 194.541 54 192.887C49.399 191.394 44.807 190.998 40 191C33.3041 191.003 27.3359 193.018 21 195M240 191.468C233.761 192.645 227.365 196 223.394 201.015C221.409 203.523 219.651 206.797 221.647 209.812C226.446 217.062 239.73 215.598 247 214.231C254.103 212.896 259.967 209.098 264.981 203.985C266.695 202.238 270.136 199.244 268.824 196.43C267.778 194.186 264.115 193.586 262 193.015C255.151 191.17 247.027 190.142 240 191.468z"/>
<path style="fill:#FEFEFE; stroke:none;" d="M47 231C59.3299 237.565 75.5488 240.932 89 235.673C93.2696 234.004 102.124 229.989 100.338 224.042C98.9112 219.291 91.2966 216.402 87 215.171C73.6822 211.353 53.0942 217.968 47 231M244 231C237.72 218.112 220.826 214.634 208 215.015C202.764 215.171 193.08 217.972 191.752 224.015C190.504 229.692 198.806 233.781 203 235.301C216.707 240.268 231.133 237.04 244 231M144.044 218.758C135.449 221.973 140.984 232.094 148.981 229.435C157.764 226.515 151.433 215.993 144.044 218.758M95 255C101.558 255.135 108.469 256.713 115 255.674C124.468 254.169 132.525 248.752 136.672 240C138.063 237.065 139.967 232.725 137.393 229.916C133.521 225.69 127.118 225.837 122.004 226.758C109.609 228.993 95.8698 242.053 95 255M198 255C195.976 242.204 183.417 229.767 171 226.844C166.597 225.808 159.133 225.108 155.604 228.728C152.72 231.685 154.832 236.908 156.378 240C160.365 247.972 169.199 254.128 178 255.671C184.671 256.841 191.355 255.285 198 255z"/>
</svg>
