<?xml version="1.0" standalone="yes"?>
<svg xmlns="http://www.w3.org/2000/svg" width="350" height="350">
<path style="fill:#ffffff; stroke:none;" d="M165 173C174.246 175 181.936 180.514 190.464 184.275C205.866 191.07 222.049 197.643 237.831 203.285C243.561 205.334 248.956 209.182 255 210C267.699 175.364 281.531 141.575 294.731 107.271C298.178 98.311 302.811 90.0085 305.866 80.8696C307.115 77.1328 308.741 73.3859 307.236 69.4637C302.402 56.8687 283.078 47.9125 273.843 61.9699C265.133 75.2295 261.85 92.1088 256.311 106.711C250.73 121.424 244.859 136.084 239.311 150.711C236.509 158.097 232.053 165.051 231 173C227.591 173 220.548 174.208 218.578 170.517C216.938 167.445 221.122 163.162 222.275 160.536C226.039 151.971 229.097 142.435 232.325 133.572C242.494 105.644 252.933 77.9939 263.688 50.2886C268.867 36.9474 276.236 25.7483 267.04 12.2855C255.765 -4.22235 232.555 3.0289 224.594 18.4637C218.696 29.8998 215.184 42.8198 210.62 54.8303C207.705 62.5038 203.917 69.874 200.749 77.4637C195.962 88.9326 192.764 101.157 187.961 112.561C182.2 126.238 176.709 139.861 171.715 153.831C169.324 160.519 165.578 165.747 165 173M100 377L253 377C253 369.671 251.862 361.291 253.264 354.09C253.85 351.077 255.96 348.716 256.91 345.827C261.529 331.791 267.839 318.289 273.312 304.561C287.489 268.998 300.103 232.648 315.039 197.439C320.942 183.526 325.777 169.191 331.545 155.286C334.965 147.041 341.616 137.064 341.927 127.975C342.524 110.583 318.237 98.4156 306.795 113.443C300.254 122.033 297.146 133.849 293.584 143.87C288.742 157.491 283.131 171.013 277.996 184.572C274.518 193.756 270.573 202.707 267.184 211.925C265.687 215.996 263.575 219.659 263 224C252.663 224.863 244.87 219.404 235.561 215.688C215.705 207.763 196.072 197.947 175.833 191.072C169.103 188.785 162.501 185.728 155.92 183.003C153.459 181.985 149.555 180.894 148.939 177.871C148.424 175.342 150.413 172.346 151.326 170.08C153.636 164.353 155.39 158.467 157.674 152.754C164.884 134.716 171.696 116.477 178.383 98.1729C179.324 95.5971 181.075 93.4546 181.907 90.8264C187.217 74.0375 194.48 57.8847 199.969 41.0857C201.676 35.8614 204.944 30.4762 205.285 24.8842C205.805 16.386 196.669 8.8667 189.576 6.71375C166.319 -0.345276 160.503 29.6836 154.071 44.5717C143.253 69.6119 134.386 95.1115 125.325 120.714C119.429 137.373 111.92 153.77 105.327 170.247C100.953 181.18 96.8805 192.167 92.4236 203.05C90.621 207.452 86.9508 211.723 88.3148 216.792C89.5336 221.321 94.9608 226.05 97.7716 229.793C105.047 239.482 113.119 249.154 121.126 258.219C124.177 261.673 127.984 264.337 130.715 268.116C134.232 272.982 145.812 281.222 139.806 287.518C137.106 290.348 133.654 289.986 131.013 287.291C124.01 280.145 118.267 271.65 111.275 264.444C97.3661 250.108 85.4194 233.622 72.4414 218.444C65.9895 210.899 59.5712 202.193 51.3349 196.4C34.8355 184.796 14.3961 194.125 8.71451 212.428C7.03996 217.823 8.99251 222.478 11.0216 227.427C15.8149 239.119 26.2436 248.779 33.385 259.285C48.436 281.426 66.3603 301.51 81.615 323.501C88.1162 332.873 96.809 341.82 99.544 353.17C101.315 360.521 100 369.457 100 377M44 59C45.006 60.731 45.5465 62.053 46 64C51.9503 66.2658 59.9843 66.3193 64.0069 71.6697C67.3394 76.1022 64.4539 84.622 70.4151 87.4005C72.7887 88.5068 76.928 88.2167 78.6821 86.1065C82.2529 81.8107 79.2572 74.5885 83.4028 70.0587C87.0114 66.1156 92.1642 67.4429 96.6566 65.5255C99.0885 64.4875 100.293 61.8691 102 60C97.6359 52.9422 91.6216 54.504 85.6698 50.007C82.3191 47.4753 80.6482 44.117 80.1744 39.9992C79.8227 36.9429 80.6169 32.6675 77.4275 30.858C75.1838 29.5851 70.95 29.5331 69.1605 31.5995C65.0777 36.3141 67.0476 43.9323 62.49 48.49C58.9112 52.0688 53.3606 51.8422 49.054 54.0579C46.8393 55.1973 45.625 57.2068 44 59M44 113C44 117.027 45.3513 124.11 42.9722 127.566C40.0283 131.844 32.9952 128.863 28.9784 131.593C24.4348 134.682 24.3362 140.634 29.5185 143.157C33.0472 144.874 38.1755 144 42 144C42.0005 148.919 41.8708 154.173 44.804 158.442C48.3109 163.547 55.3577 160.269 57.2353 155.535C58.6187 152.048 58 147.682 58 144C63.4343 144 67.7773 143.164 73 142C73.562 140.424 74.536 138.618 74.6073 136.919C74.9836 127.946 61.579 129 56 129L56 113C51.7697 112.468 48.2233 112.228 44 113M145.3 212.563C157.694 207.926 162.821 226.622 151.675 230.481C141.275 234.083 133.746 216.886 145.3 212.563M181.329 225.514C192.066 221.614 199.238 239.425 187.816 243.433C176.295 247.475 170.544 229.432 181.329 225.514M217.29 241.499C229.639 237.56 233.468 255.605 222.575 259.181C213.562 262.14 207.108 244.747 217.29 241.499M83.5147 392.854C71.3691 398.869 76 422.166 76 433C76 437.032 75.3267 441.793 76.4738 445.7C77.6986 449.872 81.4296 452.912 85.4282 454.271C89.8824 455.784 95.3578 455 100 455L127 455L220 455L251 455C255.383 455 261.304 456.019 265.295 453.856C268.966 451.866 271.022 446.751 271.741 442.83C272.952 436.228 272 428.703 272 422C272 415.946 272.869 409.13 271.74 403.171C270.972 399.117 267.717 393.941 263.675 392.513C259.662 391.096 254.202 392 250 392L223 392L129 392L98 392C93.6837 392 87.4854 390.888 83.5147 392.854M194 413L194 433L98 433L98 413L194 413M226 413L226 433L211 433L211 413L226 413z"/>
</svg>
