<?xml version="1.0" standalone="yes"?>
<svg xmlns="http://www.w3.org/2000/svg" width="513" height="524">
<path style="fill:#fcfbf4; stroke:none;" d="M252.001 1.42517C231.721 4.1991 215.856 28.8085 226.284 47.9097C233.855 61.7785 248.981 66.9562 264 64.7901C282.003 62.1937 292.859 41.7561 288.025 25C283.467 9.19708 268.3 -0.804321 252.001 1.42517M119.314 23.0717C113.626 26.3474 114.797 38.7379 111.146 43.8526C107.641 48.762 98.9116 49.476 94.0594 53.0941C90.331 55.8744 89.56 59.7675 94.1088 62.196C95.6207 63.0032 97.3779 63.464 99 63.9962C102.313 65.0833 106.032 65.6707 108.856 67.8542C114.143 71.9426 113.702 81.1134 116.044 86.956C117.505 90.601 120.736 93.2072 124.71 90.9684C132.504 86.5774 130.097 76.6236 134.14 70.1327C136.934 65.6455 143.528 64.9446 147.999 62.8573C150.974 61.4686 155.267 60.3103 154.663 56.1698C153.651 49.2316 139.896 49.5773 135.572 45.4398C130.649 40.7299 131.721 31.7596 127.852 26.3295C126.115 23.8921 122.342 21.328 119.314 23.0717M387.312 23.0324C381.749 26.5494 381.399 37.6982 377.992 42.9452C374.897 47.7101 368.803 48.7451 364 51.0988C361.47 52.3384 356.49 54.2979 357.06 57.9105C358.094 64.4605 370.58 64.313 374.856 67.287C381.065 71.6058 379.362 80.9558 382.985 86.9059C385.103 90.3853 389.844 93.0063 393.682 90.5386C398.319 87.5572 397.598 76.7713 399.978 72.0185C403.197 65.5896 408.976 65.1659 414.995 62.7508C417.676 61.6752 420.907 59.5352 420.534 56.1844C419.794 49.5476 406.288 48.8458 402.302 44.7253C397.193 39.4426 398.088 31.069 394.544 25.1481C393.051 22.654 389.959 21.3593 387.312 23.0324M461 212C447.711 211.889 438.258 203.383 434 191C425.631 191.196 417.856 195.097 410 197.67C394.97 202.592 380.117 207.799 365 212.435C359.549 214.107 354.375 216.568 348.961 218.322C346.828 219.013 344.556 219.848 342.568 218.346C339.688 216.172 338.365 211.133 336.866 207.985C333.203 200.295 329.37 192.739 325.819 185C315.239 161.938 302.887 139.478 291.12 117C286.845 108.835 282.497 100.683 278.38 92.4244C276.958 89.573 275.53 85.0245 271.895 84.5023C268.065 83.9522 263.859 86.6012 260 86.9066C254.177 87.3676 244.404 82.5624 239.302 85.1975C236.785 86.498 235.497 90.7242 233.996 93C228.346 101.567 224.273 111.703 219.917 121C209.605 143.005 197.704 164.339 186.713 186C181.791 195.701 177.568 210.13 169.451 217.681C166.534 220.395 162.292 218.62 159 217.539C149.297 214.354 139.554 210.628 130 206.999C119.091 202.856 108.017 199.198 97 195.366C92.8244 193.913 86.5603 190.92 82.1049 192.618C79.2458 193.708 78.0588 196.701 76.3665 199.001C73.8111 202.473 70.5677 205.525 67 207.941C63.3656 210.403 56.3676 210.291 53.6968 213.564C51.7089 216 53.604 220.244 53.946 223C55.0002 231.495 57.5898 239.606 58.9861 248C61.2377 261.535 65.1027 274.527 67.537 288C70.2534 303.034 72.6751 318.148 76.196 333C78.7452 343.753 80.2288 358.156 90.3002 364.776C97.94 369.798 107.329 369 116 369L164 369L350 369L398 369C408.25 369 418.846 369.32 426.906 361.79C437.439 351.95 435.96 334.884 439.039 322C445.347 295.598 450.613 268.721 455.463 242C457.28 231.992 460.115 222.151 461 212M31.0008 124.465C15.0922 127.366 1.42293 145.862 4.26312 162C7.6807 181.419 25.8794 193.993 45 190.74C67.1663 186.969 76.3697 159.335 67.2361 141.09C60.6621 127.957 44.9211 121.925 31.0008 124.465M468 124.599C462.972 125.821 457.841 127.945 453.911 131.343C446.627 137.643 441.285 147.109 441.183 157C440.958 178.806 463.449 195.201 484 190.405C504.981 185.509 513.712 159.33 503.866 141.285C499.334 132.981 492.703 128.66 484 125.695C478.93 123.968 473.269 123.317 468 124.599M241 473C238.427 462.297 222.916 464.383 214 464C213.132 456.912 209.661 450.214 206.275 444.005C204.702 441.118 201.886 437.442 198.532 440.377C192.312 445.818 194.604 458.441 187.606 462.972C182.56 466.239 173.789 463.156 168.005 464.88C165.729 465.559 162.884 466.486 162.377 469.144C160.236 480.364 178.997 479.409 181.272 487.224C182.554 491.63 178.17 500.199 177.58 505C177.287 507.389 176.609 511.142 179.434 512.353C186.603 515.43 193.814 502.953 201.001 502.738C206.569 502.571 211.59 508.404 216.289 510.76C218.152 511.694 221.253 513.319 223.258 511.918C225.282 510.504 224.967 507.097 224.696 505C224.033 499.869 220.193 493.217 221.118 488.104C221.576 485.572 224.025 484.182 226.005 482.888L241 473M288 513C293.327 512.347 298.381 510.124 303 507.417C305.598 505.894 308.5 502.846 311.715 503.043C315.14 503.253 318.241 506.508 321 508.205C325.429 510.931 329.79 512.846 335 513C334.996 507.174 334.317 501.677 332.961 496C332.301 493.236 330.657 489.965 331.647 487.104C334.098 480.015 345.632 480.278 349.681 474.295C352.352 470.347 349.983 466.626 345.956 465.394C338.929 463.243 331.254 464 324 464C323.177 457.28 320.161 449.737 316.522 444.019C314.988 441.61 312.519 438.535 309.478 440.662C302.275 445.701 303.817 458.068 297.57 463.397C293.665 466.728 283.978 465.156 279.001 465.85C276.686 466.172 273.455 466.361 272.752 469.148C270.475 478.168 287.996 479.989 290.841 486.379C292.439 489.966 289.934 495.471 289.015 499C287.811 503.62 288 508.264 288 513M418 439C416.621 445.162 413.331 450.717 411.039 456.576C410.044 459.118 409.625 462.179 406.852 463.397C400.402 466.231 386.816 461.646 383.072 469.104C381.51 472.215 383.676 474.468 386.109 476.116C390.203 478.888 398.718 481.652 401.021 486.189C404.049 492.154 396.778 501.515 397.452 507.981C397.901 512.284 401.355 513.154 404.965 511.941C411.368 509.787 416.959 505.011 423 502C427.431 507.708 438.235 512.434 445 515C446.714 509.187 445.01 503.674 443.291 498C442.433 495.168 440.794 492.03 441.694 489.004C443.572 482.688 452.224 480.265 456.941 476.571C459.13 474.857 461.709 472.419 459.953 469.465C454.624 460.495 441.71 467.953 435.549 462.397C427.991 455.58 431.226 440.004 418 439M79 463C71.4768 463.972 63.3788 464.425 56.0046 466.124C53.3876 466.727 49.3794 468.196 51.0826 471.618C53.7517 476.98 60.6574 480.022 65.5748 482.82C67.6029 483.974 70.4772 484.812 71.3434 487.228C73.446 493.092 62.4888 506.866 70.2323 510.879C77.1295 514.453 84.4678 503.018 91 503.02C96.1415 503.022 101.552 509.268 106 511.516C107.864 512.458 110.474 513.902 112.396 512.289C114.448 510.566 113.729 507.266 113.42 505C112.758 500.147 108.748 491.675 110.468 487.105C112.97 480.456 131.245 478.772 128.288 469.225C125.819 461.255 110.567 467.392 105.299 463.258C98.9764 458.294 100.558 447.707 94.7253 442.319C91.7769 439.595 87.5879 439.796 85.3441 443.228C81.9945 448.352 79.7342 456.981 79 463z"/>
</svg>
