<?xml version="1.0" standalone="yes"?>
<svg xmlns="http://www.w3.org/2000/svg" width="350" height="350">
<path style="fill:#FEFEFE; stroke:none;" d="M97 68C95.1605 59.5404 100.254 48.4964 103.34 40.5903C105.719 34.4954 108.27 30.4044 106 24C103.732 23.4944 101.341 22.2565 99 22.2577C89.9879 22.2625 79.6668 30.3167 73 35.5756C64.0114 42.6661 55.7607 50.3954 51.1698 61.2886C43.4117 79.6969 47.2494 107.697 66.321 117.795C87.4445 128.98 111.003 121.784 125.735 103.964C129.005 100.009 130.451 95.2551 132.986 90.8842C136.923 84.0955 139.879 71.8518 139.995 63.9962C140.064 59.4042 139.778 55.1162 134.71 53.4992C130.21 52.0637 126.132 53.9014 122.051 55.5764C113.461 59.1016 105.789 64.687 97 68M257 68C247.318 65.9042 239.391 58.4238 230.155 54.7322C227.316 53.5974 223.5 51.1215 220.35 51.858C208.573 54.6118 214.398 70.4516 215.579 77.9962C216.024 80.8372 216.605 83.4041 217.674 86.0795C226.257 107.56 246.706 127.348 271.83 122.741C299.591 117.65 311.71 87.1328 301.696 62.3001C296.658 49.8061 286.799 40.2716 276.116 32.7191C269.93 28.3457 260.998 22.0492 253.001 22.1088C248.265 22.1441 244.29 27.0072 245.492 31.7145C248.618 43.9501 256.73 54.9235 257 68M77 182C77.9203 174.932 82.3614 168.837 84 162C72.0511 159.326 60.4897 155.001 48 155C47.3677 145.482 44.5782 135.765 41.7106 126.714C40.6719 123.435 40.9524 119.557 39.1813 116.532C35.708 110.601 27.3885 110.058 22.8897 115.014C18.1839 120.198 23.2444 131.844 23.8302 138C24.3875 143.855 22.5725 151.084 24.51 156.674C25.9324 160.779 31.2626 163.671 34.2932 166.566C37.395 169.528 40.8471 172.225 43.5448 175.59C44.8102 177.169 45.5131 179.463 47.429 180.397C50.3408 181.818 54.8517 180.966 58 181.004C64.3536 181.079 70.6113 182 77 182M305 155C295.632 155.001 285.39 156.531 276.09 158.09C271.904 158.791 267.638 159.921 266 164C270.884 168.838 273.662 175.624 276 182C286.34 181.914 297.004 181.228 307 179C309.409 170.137 318.904 167.304 324.17 160.749C330.07 153.405 328.711 141.818 330.259 133.09C331.15 128.069 332.948 123.43 331.721 118.174C329.869 110.234 318.843 109.707 314.861 116.054C312.994 119.03 312.666 122.549 311.634 125.83C308.776 134.918 305.106 145.471 305 155M111 126C107.985 129.897 104.81 130.211 100.285 131.441C88.9918 134.51 78.1529 132.701 67 130L67 147C74.4955 147.592 81.4957 149.994 89 150C89.533 151.889 90.2999 154.537 92.8889 154.208C95.5253 153.874 97.53 150.715 99.5 149.195C104.009 145.716 108.423 141.44 114 140L113 126L111 126M242 128C240.399 130.771 239.128 133.625 237 136L237 138C241.182 140.896 245.416 143.736 249.346 146.973C251.525 148.768 253.441 151.32 256.184 152.283C262.668 154.559 271.505 148.718 277.997 147.715C280.532 147.323 283.75 146.897 285.142 144.428C287.472 140.296 286 132.626 286 128C273.902 132.942 255.379 136.954 244 128L242 128M169.424 131.71C161.252 134.055 152.464 133.711 144.17 136.09C129.522 140.289 116.669 148.693 105.709 158.961C103.222 161.291 100.04 162.988 97.8441 165.598C93.6742 170.555 90.2056 176.469 87.7593 182.463C74.2158 215.649 104.593 248.687 133.464 260.24C144.427 264.627 157.43 264 169 264C184.775 264 201.427 265.023 216.711 260.555C226.039 257.828 238.251 252.144 244.885 245.021C248.207 241.454 252.45 238.374 255.367 234.486C264.526 222.278 268.839 207.144 266.571 192.004C264.338 177.1 253.913 164.824 242.499 155.89C225.918 142.91 209.396 133.769 188.004 132.981C181.52 132.743 176.096 129.795 169.424 131.71M202.21 165.603C213.017 163.777 217.353 183.051 205.816 185.721C192.025 188.914 189.485 167.754 202.21 165.603M146.304 167.475C158.26 163.891 164.365 182.008 152.696 185.525C149.825 186.391 145.322 186.524 142.92 184.486C137.577 179.955 139.589 169.487 146.304 167.475M38 218C46.2613 218 54.7211 218.534 62.9606 217.946C67.1056 217.65 70.7488 216.047 75 216L74 192L52 192C48.2269 192 43.6819 192.629 40.1883 190.911C36.9685 189.329 35.3558 185.89 33.1042 183.285C31.2224 181.108 29.8367 179.772 29 177C23.9084 174.931 13.445 170.558 9.85802 177.483C6.32607 184.302 11.1249 192.341 15.7238 197.14C17.7067 199.21 21.6826 201.743 21.7755 204.898C21.8809 208.481 18.9661 212.234 17.6883 215.439C13.8059 225.178 8.77438 235.768 6.62963 246.039C5.86136 249.719 5.14025 255.234 6.74151 258.776C9.52855 264.942 19.0752 264.313 22.875 259.582C28.8796 252.106 31.4802 240.131 34.0887 231.089C35.3863 226.591 37.6851 222.74 38 218M279 194L278 216C285.589 216 292.653 217.707 300.015 217.981C303.358 218.106 308.636 216.971 311.258 219.603C313.543 221.895 314.099 226.859 315.135 229.866C316.026 232.452 317.653 234.624 318.62 237.17C321.635 245.104 324.517 260.934 334.339 263.142C337.299 263.807 341.082 261.631 344 261C344.754 257.619 346.136 254.591 345.941 251.035C345.606 244.903 341.682 238.501 339.341 232.92C337.778 229.192 337.035 225.095 335.326 221.464C333.045 216.619 328.386 210.42 328.248 204.885C328.093 198.62 338.904 194.297 341.262 188.791C343.452 183.674 341.774 175.981 335.907 174.42C323.146 171.023 317.109 187.73 307.56 192.772C300.375 196.565 287.004 194 279 194M58 255C69.6119 254.501 79.5928 247.741 91 247C90.4201 238.74 81.8776 233.966 80 226C71.8047 226.028 65.7026 230.228 57.9614 232.157C53.0579 233.38 45.2849 234.312 41.9738 238.688C40.0734 241.2 40.3297 244.904 39.5594 247.83C37.2491 256.606 34.6497 265.032 32.9606 273.961C31.5583 281.374 24.6954 292.139 29.8989 299.387C34.2261 305.414 44.7784 304.004 48.1528 297.995C50.4505 293.904 50.3522 289.58 51.4514 285.17C53.9269 275.237 57.7867 265.336 58 255M273 226C271.122 233.97 263.093 238.988 262 247C272.648 248.356 282.253 254.537 293 255C293.113 265.188 296.788 276.367 299.563 286.155C300.69 290.128 301.385 295.003 303.418 298.62C306.446 304.007 316.607 304.863 320.62 300.291C326.143 293.998 322.37 288.53 320.417 281.83C319.069 277.21 318.773 272.609 317 268.08C315.12 263.278 313.53 258.094 312.733 252.996C312.021 248.438 312.149 243.395 309.529 239.376C305.934 233.86 298.726 233.483 293.09 231.91C286.435 230.054 279.941 226.461 273 226M125 267C119.686 265.569 114.743 263.566 110.34 260.156C106.957 257.536 104.9 254.098 100.036 254.515C95.73 254.883 92.6728 259.023 88.841 260.715C81.6299 263.898 71.3953 267.423 66.2631 273.704C62.6254 278.157 63 283.611 63 289C63 300.947 60.8924 315.121 63.2639 326.826C64.5877 333.361 72.6925 336.326 78.4051 333.015C88.0098 327.449 83.9994 308.412 84 299C84.0003 294.665 83.1569 289.279 87.0586 286.34C90.1034 284.047 93.9689 283.448 97.385 281.961C102.725 279.636 107.784 276.701 113.084 274.344C117.421 272.415 122.694 271.414 125 267M228 267C230.059 270.971 233.64 271.469 237.335 273.535C245.76 278.249 256.175 280.483 263.941 286.34C267.842 289.282 267 294.663 267 299C267.001 308.157 263.509 326.775 272.765 332.721C284.694 340.386 290.584 324.979 289.946 316.039C289.745 313.224 288.455 310.742 288.129 307.961C287.479 302.428 288 296.567 288 291C288 286.646 289.08 280.541 287.157 276.515C283.405 268.661 273.007 265.245 266.084 261.079C262.503 258.924 258.904 256.046 254.833 254.855C249.994 253.439 247.941 257.353 244.486 259.816C239.477 263.386 234.184 266.49 228 267z"/>
</svg>
