<?xml version="1.0" standalone="yes"?>
<svg xmlns="http://www.w3.org/2000/svg" width="667" height="810">
<path style="fill:#fefaff; stroke:none;" d="M330 28.4244C323.344 29.309 316.414 29.774 310 31.8896C283.674 40.5735 262.861 62.0158 255.756 89C241.851 141.811 287.921 197.865 343 190.711C353.22 189.383 364.36 187.065 373.576 182.286C395.066 171.143 411.7 148.026 415.56 124C420.327 94.335 408.834 61.4639 384 43.5949C374.038 36.4271 361.955 32.2333 350 30.0771C343.107 28.8339 337.076 27.4839 330 28.4244M34 87.5178C13.3139 91.9297 4.14352 111.364 8.37577 131C9.91192 138.127 15.1609 144.207 19.2909 150C29.0106 163.634 42.1993 177.515 48.767 193C52.6334 202.116 53.8195 212.448 56.2855 222C60.4141 237.992 64.8133 253.947 68.6644 270C71.139 280.315 72.0764 292.655 77.1821 302C79.361 305.988 81.9536 309.688 85.0903 312.985C103.052 331.869 125.919 324.864 148 320.014C166.39 315.974 184.689 311.848 203 307.374C211.637 305.264 220.34 303.571 229 301.572C233.216 300.599 237.576 298.409 242 298.903C247.231 299.487 251.459 304.012 252.606 309C255.201 320.293 253 334.418 253 346L253 423L253 453C253 458.482 253.737 464.626 251.674 469.83C246.467 482.971 235.848 494.579 227.709 506C213.802 525.515 200.405 545.404 186.7 565.001C181.098 573.01 173.131 581.009 169.271 590C164.05 602.161 165 615.088 165 628L165 683L165 760C165 776.123 165.2 793.461 177.174 805.91C190.738 820.013 215.332 822.506 230.999 810.468C239.197 804.169 244.979 793.171 246.674 783C248.689 770.91 247 757.253 247 745L247 670C247 657.348 244.342 641.202 247.939 629.015C250.042 621.892 256.726 614.88 261.127 609C270.264 596.792 279.51 584.673 288.001 572C297.778 557.407 308.358 542.491 319.615 529.004C324.706 522.904 331.782 518.23 340 520.804C345.953 522.668 349.708 528.122 353.511 532.714C362.84 543.981 371.039 556.932 379.341 569C388.872 582.855 398.92 596.331 408.71 610C413.24 616.325 419.383 622.567 422.031 630C423.49 634.096 423 638.723 423 643L423 666L423 746C423 770.601 418.538 800.772 445.015 813.94C448.599 815.723 452.028 816.981 456 817.571C460.903 818.299 466.121 818.249 471 817.385C485.063 814.895 498.185 804.163 501.945 790C505.438 776.845 504 762.474 504 749L504 681L504 624C504 614.381 505.58 603.195 501.885 594.089C497.34 582.89 488.387 572.948 481.67 563C467.145 541.491 452.21 520.23 437.279 499C431.092 490.202 421.845 481.134 417.995 471C414.676 462.266 417 449.267 417 440L417 371L417 325C417 319.001 415.412 310.294 418.742 305.005C423.982 296.682 431.146 299.142 439 301.105C446.254 302.918 453.637 305.007 461 306.247C483.422 310.021 505.904 316.367 528 321.742C545.202 325.927 564.647 329.318 580 317.585C592.973 307.671 597.019 290.11 600.424 275C604.648 256.252 609.444 237.65 614.105 219C616.389 209.86 617.412 198.471 621.998 190.17C629.295 176.963 639.687 164.35 648.424 152C653.758 144.461 659.483 137.416 660.711 128C663.513 106.496 649.775 84.8223 626 87.1705C608.671 88.8821 598.334 103.915 589 117C579.182 130.763 565.925 144.579 559.322 160.286C557.373 164.921 556.895 170.134 555.765 175C553.747 183.686 551.477 192.307 549.499 201C547.077 211.644 544.652 222.313 542.45 233C541.235 238.892 539.882 245.736 533.96 248.82C529.761 251.006 525.17 249.024 521 247.876C516.145 246.538 510.941 245.5 506 244.453C489.996 241.062 473.946 237.343 458 233.664C450.004 231.82 441.213 229.346 433 229.044C424.142 228.719 414.947 230 406 230L316 230L257 230C250.107 230 242.796 228.597 236 229.174C214.422 231.005 191.919 237.346 171 242.732C163.361 244.698 155.715 246.65 148 248.285C144.748 248.974 141.393 250.474 138.015 250.217C132.408 249.79 129.281 243.884 128.12 239C125.282 227.061 123.311 214.889 120.269 203C117.878 193.659 115.501 184.368 113.231 175C111.771 168.971 111.033 162.63 108.355 157C100.779 141.071 86.8873 126.956 76.2346 113C65.5706 99.0294 54.1607 83.2178 34 87.5178z"/>
</svg>
