<?xml version="1.0" standalone="yes"?>
<svg xmlns="http://www.w3.org/2000/svg" width="271" height="327">
<path style="fill:#FEFEFE; stroke:none;" d="M202 20L202 8C168.631 8 135.308 7 102 7C94.3339 7 86.6659 6.94791 79 7.00076C75.4885 7.02496 71.8547 6.85797 71.1481 11.0586C70.7631 13.3476 70.5696 17.3615 72.6034 18.9722C74.6894 20.6243 78.5309 19.9989 81 20L101 20L202 20M52 32.5293C43.6661 34.4558 38.5354 41.2198 35.9545 49C33.9247 55.1188 35 62.625 35 69C35 84.8616 30.606 108.952 45.0934 120.058C49.3162 123.295 54.3797 123.228 59 125.43C63.196 127.429 65.5826 132.469 70.0895 133.682C78.6249 135.979 90.1659 134 99 134L160 134L189 134C193.65 134 199.398 134.902 203.91 133.682C208.287 132.498 210.186 127.476 214.039 125.303C219.229 122.378 225.233 122.935 229.957 118.775C242.266 107.936 238 84.6191 238 70C238 57.0559 239.335 41.6812 226 34.4174C220.444 31.3914 214.1 32 208 32L179 32L94 32C80.8135 32 64.859 29.5568 52 32.5293M24 101L24 71C24 65.3598 24.6069 59.4364 23 54C2.43239 61.1874 0.255407 96.7648 24 101z"/>
<path style="fill:#FEFEFE; stroke:none;" d="M250 55L250 101C273.542 97.4557 274.541 57.5299 250 55M90.0039 65.7215C74.8515 70.3448 81.2859 93.2692 96.9846 88.196C109.869 84.0322 102.843 61.8038 90.0039 65.7215M177.001 65.7469C163.183 70.815 169.337 94.3837 183.985 89.0293C197.759 83.9947 189.983 60.9854 177.001 65.7469z"/>
<path style="fill:#FEFEFE; stroke:none;" d="M23 171C33.806 174.194 47.7444 172 59 172L59 148C53.2219 148 46.6218 147.123 41 148.613C30.3781 151.427 25.3044 161.044 23 171M72 148C72 165.694 70.2342 184.413 72.108 202C72.7206 207.749 76.9602 212.418 78.3904 218C80.2153 225.122 79 233.681 79 241L194 241C194 232.675 193.284 224.064 195.774 216C197.183 211.436 200.676 207.622 201.698 203C203.733 193.788 202 182.429 202 173L202 157C201.995 154.764 202.468 151.492 200.972 149.603C199.109 147.25 194.617 148.001 192 148L169 148L72 148M214 172L251 172C250.319 158.734 239.166 148.166 226 148.004C223.037 147.967 217.132 146.947 215.028 149.603C213.699 151.281 214.014 154.008 214.001 156L214 172z"/>
<path style="fill:#FEFEFE; stroke:none;" d="M104 193L150 193C154.32 193 163.852 194.779 167.397 191.972C169.915 189.977 169 184.819 169 182L123 182C118.68 182 109.148 180.221 105.603 183.028C103.085 185.023 104 190.181 104 193M32 199C35.8853 198.307 39.1779 196.215 43 195.39C48.5491 194.193 54.473 195.301 60 196L60 183C53.6671 183 47.3327 182.957 41 183.001C38.2748 183.02 34.7553 182.729 33.0278 185.318C30.7876 188.675 32 195.13 32 199M214 183L214 196C217.322 195.438 220.595 194.052 224 194.137C230.231 194.291 235.388 197.891 241 200L241 183L214 183M105 204L105 215L169 215C169 212.181 169.915 207.023 167.397 205.028C163.852 202.221 154.32 204 150 204L105 204M40 257C40.5961 252.283 40.9997 247.766 41 243C41.0003 238.935 39.6691 231.853 42.0278 228.318C44.22 225.033 51.78 225.033 53.9722 228.318C58.1963 234.648 53.1681 245.753 55.3179 252.847C56.8561 257.924 63.5115 253.341 65.3966 250.79C68.3291 246.823 67 239.661 67 235C67 229.357 68.0948 222.343 65.9946 217C61.7514 206.206 47.9913 201.804 38.0039 207.533C26.8415 213.937 29 226.003 29 237C29 240.932 28.0819 246.329 30.0278 249.907C32.001 253.534 36.327 255.607 40 257M218 256L218 237C218.001 234.33 217.46 230.667 219.028 228.318C221.515 224.59 230.534 225.098 232.397 229.228C233.54 231.763 233 235.294 233 238L233 256C246.14 253.494 245 245.131 245 234C245 228.646 245.968 222.161 244.347 217C241.809 208.918 232.896 205.069 225 205.079C206.989 205.102 206 222.459 206 236C206 240.097 204.964 246.013 207.179 249.671C209.349 253.255 214.146 255.116 218 256M76 259L103 259L103 252C94.1605 252 78.8217 248.318 76 259M117 252L117 266C129.997 266 143.102 266.63 156 265L156 252L117 252M170 253L170 259L197 259C195.565 249.237 177.477 253 170 253M74 269L73 283C77.3348 282.646 81.6387 280.96 86 281.329C92.5946 281.886 98.5704 284.894 105 286C105 282.031 106.553 273.861 103.972 270.603C102.255 268.436 98.4197 269.005 96 269L74 269M169 286C174.736 285.025 180.151 282.753 186 282.171C190.744 281.698 195.3 282.629 200 283L200 269L178 269C175.58 269.005 171.745 268.436 170.028 270.603C167.447 273.861 169 282.031 169 286M45 322L121 322C120.998 318.647 121.138 315.259 120.211 312C114.565 292.136 96.8576 293 80 293C71.7153 293 63.1075 291.712 56.0008 296.789C46.927 303.272 45.0012 311.504 45 322M152 322L230 322C230 317.989 230.225 313.878 229.011 310C223.176 291.359 204.646 293 189 293C179.875 293 170.742 291.78 163.015 297.613C154.941 303.707 152.753 312.453 152 322z"/>
</svg>
