<?xml version="1.0" standalone="yes"?>
<svg xmlns="http://www.w3.org/2000/svg" width="493" height="483">
<path style="fill:#ffffff; stroke:none;" d="M192 119L119 119C112.281 119 105.7 119.989 99 120C95.9294 120.005 91.252 119.151 88.4375 120.603C84.9564 122.4 86.9582 128.893 86.9961 132C87.1103 141.344 87.8923 150.625 88.0039 160C88.0495 163.834 87.9313 168.418 91 171C90.4149 175.224 91.7898 178.861 92.5756 183C95.1503 196.56 101.211 209.558 106.965 222C136.02 284.82 206.938 330.327 277 314.501C297.806 309.801 318.595 301.625 335.996 289.09C346.153 281.774 354.339 272.544 362.285 263C382.31 238.951 397.212 209.789 403.37 179C407.233 159.69 406 139.608 406 120L339 120C331.572 120 324.384 119.596 317 119.09C313.8 118.87 310.129 119.525 307.094 118.258C301.306 115.84 298.724 106.594 294.79 102C285.247 90.8534 270.206 80.3239 255 80L255 60C255 56.8914 254.435 53.0404 255.603 50.0903C256.949 46.6929 260.586 44.9137 262.892 42.2508C268.093 36.2451 269.064 28.4569 266.826 21C261.434 3.0416 232.837 4.02887 228.186 22C226.377 28.9906 228.288 36.6358 233.133 41.9815C235.444 44.5321 239.205 46.3038 240.972 49.2593C242.318 51.5107 241.995 54.4889 242 57C242.012 62.8391 243.817 72.3917 241.397 77.7716C240.09 80.6762 236.702 80.9515 234 81.7485C229.914 82.9534 225.827 84.6814 222 86.5494C210.088 92.3643 195.221 105.567 192 119M85 110L109 110C108.79 84.9239 78.586 75.1594 58 77.0749C31.7894 79.5136 11.4728 100.789 5.46991 126C4.19739 131.344 4.46354 137.551 4.54938 143C5.03011 173.515 24.3565 194.477 43.8302 216C53.7027 226.912 63.9555 237.544 75 247.285C81.4101 252.939 87.0697 259.467 92.5617 266C98.4682 273.026 104.13 279.868 106.447 289C108.029 295.236 107.292 305.009 111.279 310.235C115.142 315.299 124.097 315.129 128.811 311.467C133.57 307.77 133.122 302.473 132.985 297C132.682 284.796 125.447 270.82 118.584 261.004C100.933 235.755 76.37 215.856 55.9853 192.999C44.1825 179.765 31.3576 164.414 30.0895 146C29.0782 131.315 34.6465 113.857 48.0008 105.883C56.8788 100.583 65.3629 99.5959 75 103.12C79.2803 104.685 82.8228 105.838 85 110M385 109C391.895 109.005 400.316 111.625 406.985 109.437C410.113 108.411 412.294 105.802 415.09 104.189C420.308 101.178 427.122 100.241 433 101.005C458.397 104.303 472.091 134.158 463.225 157C455.93 175.796 441.039 190.961 427 205C409.21 222.79 390.47 240.472 375.725 260.961C367.809 271.96 362.067 285.31 362.001 299C361.976 304.225 361.036 310.664 366.109 313.91C370.804 316.915 379.27 316.662 382.852 312.022C387.35 306.196 386.085 295.889 388.547 289C392.11 279.033 399.422 269.892 406.289 262C412.931 254.367 420.581 247.652 427.91 240.715C440.355 228.936 452.248 215.99 463.424 203C470.173 195.156 477.474 187.241 482.306 178C493.202 157.159 494.748 129.249 482.946 108.576C468.704 83.6285 442.138 72.8045 415 79.5594C401.231 82.9865 386.978 93.8874 385 109z"/>
<path style="fill:#ffffff; stroke:none;" d="M272.996 326.468C259.717 327.414 246.324 327 233 327C227.353 327 220.228 325.826 215.29 329.148C205.376 335.818 207.564 352.76 218.004 357.583C223.344 360.049 230.265 359 236 359C247.395 359 259.76 361.179 271 359.816C278.41 358.917 284.866 354.619 286.517 347C288.433 338.158 283.765 325.702 272.996 326.468M223 372L223 389L273 389L273 372L223 372M219 400.594C214.721 401.563 210.162 401.717 206 403.043C182.094 410.663 164.986 425.625 153.975 448C150.733 454.59 148.362 461.565 148.039 469C147.936 471.39 147.47 475.282 149.603 476.972C152.543 479.301 159.469 478 163 478L197 478L298 478L329 478C333.558 478 339.457 478.987 343.852 477.682C349.409 476.032 346.701 465.949 345.741 462C341.917 446.276 335.008 433.272 322.999 422.09C310.093 410.073 291.489 402.277 274 400.184C265.21 399.133 255.85 400 247 400C238.047 400 227.756 398.611 219 400.594z"/>
</svg>
